<svg xmlns="http://www.w3.org/2000/svg" width="64" height="64" viewBox="0 0 64 64" fill="none">
  <rect width="64" height="64" rx="14" fill="url(#phd-atlas-bg)"/>
  <rect width="64" height="64" rx="14" fill="url(#phd-atlas-sheen)"/>
  <g transform="translate(15,15) scale(1.41667)" fill="none" stroke="#FFFFFF" stroke-width="2" stroke-linecap="round" stroke-linejoin="round">
    <path d="M21.42 10.922a1 1 0 0 0-.019-1.838L12.83 5.18a2 2 0 0 0-1.66 0L2.6 9.08a1 1 0 0 0 0 1.832l8.57 3.908a2 2 0 0 0 1.66 0z"/>
    <path d="M22 10v6"/>
    <path d="M6 12.5V16a6 3 0 0 0 12 0v-3.5"/>
  </g>
  <defs>
    <linearGradient id="phd-atlas-bg" x1="6" y1="3" x2="58" y2="61" gradientUnits="userSpaceOnUse">
      <stop offset="0" stop-color="#2B9CFF"/>
      <stop offset="1" stop-color="#0058C6"/>
    </linearGradient>
    <linearGradient id="phd-atlas-sheen" x1="32" y1="0" x2="32" y2="30" gradientUnits="userSpaceOnUse">
      <stop offset="0" stop-color="#FFFFFF" stop-opacity="0.18"/>
      <stop offset="1" stop-color="#FFFFFF" stop-opacity="0"/>
    </linearGradient>
  </defs>
</svg>
